<svg id="구성_요소_1" data-name="구성 요소 1" xmlns="http://www.w3.org/2000/svg" width="78" height="14" viewBox="0 0 78 14">
  <path id="패스_6469" data-name="패스 6469" d="M7,0,9.187,4.605,14,5.342,10.5,8.934,11.288,14,7,11.605,2.712,14,3.5,8.934,0,5.342l4.813-.737Z" fill="#ffa406"/>
  <path id="패스_14456" data-name="패스 14456" d="M7,0,9.187,4.605,14,5.342,10.5,8.934,11.288,14,7,11.605,2.712,14,3.5,8.934,0,5.342l4.813-.737Z" transform="translate(16)" fill="#ffa406"/>
  <path id="패스_14457" data-name="패스 14457" d="M7,0,9.187,4.605,14,5.342,10.5,8.934,11.288,14,7,11.605,2.712,14,3.5,8.934,0,5.342l4.813-.737Z" transform="translate(32)" fill="#ffa406"/>
  <path id="패스_14458" data-name="패스 14458" d="M7,0,9.187,4.605,14,5.342,10.5,8.934,11.288,14,7,11.605,2.712,14,3.5,8.934,0,5.342l4.813-.737Z" transform="translate(48)" fill="#ffa406"/>
  <path id="패스_14459" data-name="패스 14459" d="M7,0,9.187,4.605,14,5.342,10.5,8.934,11.288,14,7,11.605,2.712,14,3.5,8.934,0,5.342l4.813-.737Z" transform="translate(64)" fill="#ffa406"/>
</svg>
