<svg xmlns="http://www.w3.org/2000/svg" width="78" height="14" viewBox="0 0 78 14">
  <g id="그룹_14726" data-name="그룹 14726" transform="translate(0 -28)">
    <path id="패스_14459" data-name="패스 14459" d="M7,0,9.187,4.605,14,5.342,10.5,8.934,11.288,14,7,11.605,2.712,14,3.5,8.934,0,5.342l4.813-.737Z" transform="translate(64 28)" fill="#e5e5e5"/>
    <path id="패스_14484" data-name="패스 14484" d="M7,0,9.187,4.605,14,5.342,10.5,8.934,11.288,14,7,11.605,2.712,14,3.5,8.934,0,5.342l4.813-.737Z" transform="translate(48 28)" fill="#e5e5e5"/>
    <path id="패스_14485" data-name="패스 14485" d="M7,0,9.187,4.605,14,5.342,10.5,8.934,11.288,14,7,11.605,2.712,14,3.5,8.934,0,5.342l4.813-.737Z" transform="translate(32 28)" fill="#e5e5e5"/>
    <path id="패스_14486" data-name="패스 14486" d="M7,0,9.187,4.605,14,5.342,10.5,8.934,11.288,14,7,11.605,2.712,14,3.5,8.934,0,5.342l4.813-.737Z" transform="translate(16 28)" fill="#e5e5e5"/>
    <path id="패스_14487" data-name="패스 14487" d="M7,0,9.187,4.605,14,5.342,10.5,8.934,11.288,14,7,11.605,2.712,14,3.5,8.934,0,5.342l4.813-.737Z" transform="translate(0 28)" fill="#e5e5e5"/>
  </g>
</svg>
